<mxfile host="app.diagrams.net" modified="2023-06-24T13:05:14.725Z" agent="Mozilla/5.0 (Macintosh; Intel Mac OS X 10_15_7) AppleWebKit/537.36 (KHTML, like Gecko) Chrome/114.0.0.0 Safari/537.36" etag="dr1pI0USV1tzKDWGWpAF" version="21.5.0" type="device">
  <diagram name="Page-1" id="so8Qr2VUq4w6j5YNHnDN">
    <mxGraphModel dx="1434" dy="796" grid="1" gridSize="10" guides="1" tooltips="1" connect="1" arrows="1" fold="1" page="1" pageScale="1" pageWidth="827" pageHeight="1169" math="0" shadow="0">
      <root>
        <mxCell id="0" />
        <mxCell id="1" parent="0" />
        <mxCell id="eTCodFbIycPJilnMIBV6-1" value="" style="rounded=0;whiteSpace=wrap;html=1;" vertex="1" parent="1">
          <mxGeometry x="60" y="230" width="680" height="340" as="geometry" />
        </mxCell>
        <mxCell id="eTCodFbIycPJilnMIBV6-2" value="Blockchain Writer" style="text;html=1;strokeColor=none;fillColor=none;align=center;verticalAlign=middle;whiteSpace=wrap;rounded=0;" vertex="1" parent="1">
          <mxGeometry x="350" y="250" width="200" height="30" as="geometry" />
        </mxCell>
        <mxCell id="eTCodFbIycPJilnMIBV6-3" value="" style="endArrow=none;html=1;rounded=0;exitX=0.25;exitY=1;exitDx=0;exitDy=0;entryX=0.25;entryY=0;entryDx=0;entryDy=0;" edge="1" parent="1" source="eTCodFbIycPJilnMIBV6-1" target="eTCodFbIycPJilnMIBV6-1">
          <mxGeometry width="50" height="50" relative="1" as="geometry">
            <mxPoint x="230" y="250" as="sourcePoint" />
            <mxPoint x="280" y="200" as="targetPoint" />
          </mxGeometry>
        </mxCell>
        <mxCell id="eTCodFbIycPJilnMIBV6-4" value="Ledger" style="text;html=1;strokeColor=none;fillColor=none;align=center;verticalAlign=middle;whiteSpace=wrap;rounded=0;" vertex="1" parent="1">
          <mxGeometry x="90" y="250" width="60" height="30" as="geometry" />
        </mxCell>
        <mxCell id="eTCodFbIycPJilnMIBV6-7" value="" style="edgeStyle=orthogonalEdgeStyle;rounded=0;orthogonalLoop=1;jettySize=auto;html=1;" edge="1" parent="1" source="eTCodFbIycPJilnMIBV6-5" target="eTCodFbIycPJilnMIBV6-6">
          <mxGeometry relative="1" as="geometry" />
        </mxCell>
        <mxCell id="eTCodFbIycPJilnMIBV6-5" value="block 1" style="whiteSpace=wrap;html=1;aspect=fixed;" vertex="1" parent="1">
          <mxGeometry x="90" y="320" width="50" height="50" as="geometry" />
        </mxCell>
        <mxCell id="eTCodFbIycPJilnMIBV6-6" value="block 2" style="whiteSpace=wrap;html=1;aspect=fixed;" vertex="1" parent="1">
          <mxGeometry x="90" y="450" width="50" height="50" as="geometry" />
        </mxCell>
        <mxCell id="eTCodFbIycPJilnMIBV6-8" value="text input..." style="rounded=0;whiteSpace=wrap;html=1;" vertex="1" parent="1">
          <mxGeometry x="310" y="330" width="350" height="80" as="geometry" />
        </mxCell>
        <mxCell id="eTCodFbIycPJilnMIBV6-10" value="write data" style="rounded=1;whiteSpace=wrap;html=1;" vertex="1" parent="1">
          <mxGeometry x="550" y="440" width="110" height="20" as="geometry" />
        </mxCell>
      </root>
    </mxGraphModel>
  </diagram>
</mxfile>
